# xmcd
#
# Track frame offsets:
#	150
#	15687
#	30452
#	43485
#	54420
#	66047
#	77390
#	91202
#	104345
#	115402
#	128197
#	141885
#	155592
#	165595
#	179515
#	194917
#
# Disc length: 2748
#
# Revision: 2
# Processed by: cddbd v1.5.1PL0 Copyright (c) Steve Scherf et al.
# Submitted via: audiograbber 1.81.01
# Normalized: r1:DSETVAR1
#
DISCID=dd0aba10
DTITLE=Various Artist - Country Legends: Exposed Roots
DYEAR=1900
DGENRE=Country
TTITLE0=Willie Nelson - I'd Have To Be Crazy
TTITLE1=George Jones - He Stopped Loving Her Today
TTITLE2=Tammy Wynette - One of a Kind
TTITLE3=Roy Orbison - Working for the Man
TTITLE4=Johnny Cash - I Walk the Line
TTITLE5=Marty Robbins - Ribbon of Darkness
TTITLE6=Lefty Frizzell - The Long Black Veil
TTITLE7=Roy Acuff and His Smoky Mountain Boys - Great Speckled Bird
TTITLE8=Gene Autry - There's a New Moon Over My Shoulder
TTITLE9=Emmett Miller - Lovesick Blues
TTITLE10=Bob Willis and His Texas Playboys - Get With It
TTITLE11=Carl Smith - If Teardrops Were Pennies
TTITLE12=Johnny Horton - Honky Tonk Man
TTITLE13=Moe Bandy - I Cheated Me Right Out of You
TTITLE14=Johnny Paycheck with Merle Haggard - I Can't Hold Myself in Line
TTITLE15=The Byrds - The Christian Life
EXTD=
EXTT0=
EXTT1=
EXTT2=
EXTT3=
EXTT4=
EXTT5=
EXTT6=
EXTT7=
EXTT8=
EXTT9=
EXTT10=
EXTT11=
EXTT12=
EXTT13=
EXTT14=
EXTT15=
PLAYORDER=
